<?xml version="1.0" encoding="utf-8"?>
<!-- Generator: Adobe Illustrator 23.1.0, SVG Export Plug-In . SVG Version: 6.00 Build 0)  -->
<svg version="1.1" id="Layer_1" xmlns="http://www.w3.org/2000/svg" xmlns:xlink="http://www.w3.org/1999/xlink" x="0px" y="0px"
	 viewBox="0 0 1000 398" style="enable-background:new 0 0 1000 398;" xml:space="preserve">
<style type="text/css">
	.st0{fill:#0B5F7C;}
	.st1{fill:#6BA5B8;}
</style>
<g>
	<path class="st0" d="M157.02,219.76c-3.36-7.28-8.18-13.36-14.48-18.21c-6.27-4.87-13.75-7.95-22.43-9.24
		c8.68-1.57,15.94-4.65,21.79-9.21c5.85-4.57,10.2-10.08,13.05-16.53c2.86-6.44,4.29-13.36,4.29-20.75
		c0-11.99-2.32-22.32-6.95-30.98c-4.62-8.65-11.6-15.35-20.95-20.08c-9.35-4.73-20.95-7.09-34.84-7.09H11.94v214.6h87.08
		c12.69,0,23.81-2.41,33.36-7.23c9.55-4.82,16.86-11.65,21.99-20.53c5.13-8.85,7.67-19.07,7.67-30.7v-0.42
		C162.03,234.91,160.35,227.04,157.02,219.76z M41.91,115.56h49.13c12.6,0,22.04,2.66,28.34,7.98c6.3,5.29,9.44,13.33,9.44,24.06
		c0,10.22-2.83,17.95-8.49,23.16c-5.66,5.21-14.03,7.81-25.15,7.81H41.91V115.56z M131.65,241.16c0,10.53-3.5,18.71-10.5,24.51
		c-6.97,5.83-18.09,8.71-33.36,8.71H41.91v-68.62h53.27c8.46,0,15.4,1.4,20.81,4.2c5.41,2.8,9.38,6.81,11.88,12.02
		c2.52,5.24,3.78,11.48,3.78,18.77V241.16z"/>
	<path class="st0" d="M324.71,36.16c-10.06,11.18-19.97,21.65-29.24,32.69c-20.28,24.14-37.84,50.22-52.82,77.89
		c-0.45,0.84-0.92,1.6-1.46,2.32c-5.43,7.84-14.12,9.97-21.82,14.06c-0.45,0.25-1.96-0.87-3.16-2.13c-0.56-0.59-1.06-1.2-1.34-1.74
		c-4.87-8.88-9.07-18.15-14.23-26.86c-4.29-7.25-9.86-13.56-18.49-16.3c-0.95-0.31-2.07-3.59-1.51-4.68
		c5.29-10.48,17.79-13.36,26.75-5.74c4.96,4.23,8.93,9.75,12.94,14.98c5.63,7.34,5.15,7.17,11.04,0.45
		c20.45-23.33,40.86-46.69,61.93-69.46c5.97-6.47,13.92-11.2,21.23-16.33C317.54,33.22,321.32,32.13,324.71,36.16z"/>
	<path class="st0" d="M246.31,160.32v141.95H216.2V173.96c0.95,0.25,1.96,0.39,3.02,0.39l2.94-0.03l2.44-1.32
		c1.62-0.84,3.39-1.65,5.27-2.49C235.05,168.17,241.13,165.42,246.31,160.32z"/>
	<path class="st0" d="M336.69,271.35c-1.62-2.02-2.44-4.89-2.44-8.64V87.67h-30.11v174.75c0,12.89,3.12,22.88,9.37,29.96
		c6.25,7.08,15.08,10.63,26.49,10.63h17.71v-28.64h-14.17C340.61,274.38,338.32,273.37,336.69,271.35z"/>
	<path class="st1" d="M518.74,194.97c-8.96-3.54-20.18-6.69-33.65-9.45c-0.59-0.1-1.16-0.22-1.7-0.37c-0.54-0.15-1.11-0.27-1.7-0.37
		c-0.49-0.1-0.96-0.2-1.4-0.3c-0.44-0.1-0.86-0.2-1.25-0.3c-12.4-2.46-22.17-4.82-29.3-7.08c-7.13-2.26-13.11-5.73-17.93-10.41
		c-4.82-4.67-7.23-11.04-7.23-19.11v-0.15c0-13.38,4.82-23.76,14.46-31.14c9.64-7.38,23.22-11.07,40.74-11.07
		c8.65,0,17.41,1.6,26.27,4.8c8.86,3.2,17.91,8.04,27.16,14.54l12.54-16.68c-7.08-5.02-14.25-9.17-21.48-12.47
		c-7.23-3.29-14.56-5.78-21.99-7.45c-7.43-1.67-14.93-2.51-22.51-2.51c-16.04,0-29.77,2.46-41.18,7.38
		c-11.42,4.92-20.1,12.08-26.05,21.47c-5.95,9.4-8.93,20.74-8.93,34.02v0.15c0,13.19,3.17,23.49,9.52,30.92
		c6.35,7.43,14.04,12.69,23.1,15.79c9.05,3.1,21.11,6.08,36.17,8.93l4.28,0.89c0.39,0.1,0.76,0.17,1.11,0.22
		c0.34,0.05,0.67,0.12,0.96,0.22c10.92,2.07,19.85,4.33,26.79,6.79c6.94,2.46,12.59,6.15,16.97,11.07
		c4.38,4.92,6.56,11.46,6.56,19.63v0.15c0,13.19-5.04,23.42-15.13,30.7c-10.09,7.28-24.33,10.92-42.73,10.92
		c-12.7,0-24.45-1.97-35.28-5.91c-10.82-3.93-20.71-9.84-29.66-17.71l-12.84,16.82c6.99,5.91,14.49,10.83,22.51,14.76
		c8.02,3.94,16.65,6.89,25.91,8.85c9.25,1.97,13.87,2.95,13.87,2.95s5.16,0,15.5,0c16.62,0,30.82-2.43,42.58-7.31
		c11.76-4.87,20.74-11.96,26.94-21.25c6.2-9.3,9.3-20.49,9.3-33.58v-0.3c0-12.79-2.98-22.95-8.93-30.48
		C535.15,204.05,527.69,198.51,518.74,194.97z"/>
	<rect x="606.4" y="149.07" class="st1" width="21.25" height="153.21"/>
	<rect x="606.4" y="87.67" class="st1" width="21.25" height="21.25"/>
	<path class="st1" d="M785.87,169.78c-4.87-7.3-10.88-12.77-18.08-16.35c-8.81-4.38-19.06-6.57-30.77-6.57
		c-10.82,0-20.1,2.44-27.82,7.31c-7.73,4.87-13.61,11.98-17.64,21.33c-4.03,9.35-6.05,20.62-6.05,33.8v33.36
		c0,12.99,2.07,24.11,6.2,33.36c4.13,9.25,10.19,16.31,18.16,21.18c7.97,4.87,17.51,7.31,28.63,7.31c12.4,0,22.78-2.04,31.14-6.12
		c7.01-3.42,12.41-8.72,16.24-15.84v18.12c0,14.37-3.94,25.51-11.81,33.43c-7.87,7.92-18.94,11.88-33.21,11.88
		c-7.18,0-14.02-1.65-20.51-4.95c-6.49-3.3-12.05-7.95-16.68-13.95l-14.46,12.99c5.02,7.77,12.05,13.8,21.1,18.08
		c9.05,4.28,13.58,6.42,13.58,6.42s5.8,0,17.42,0c13.88,0,25.73-2.61,35.57-7.82c9.84-5.22,17.34-12.84,22.51-22.88
		c5.17-10.04,7.75-22.09,7.75-36.16V149.07h-21.25V169.78z M785.87,246.19c0,6.69-1.58,13.11-4.72,19.26
		c-3.15,6.15-7.68,11.14-13.58,14.98c-5.9,3.84-12.79,5.75-20.66,5.75c-12.79,0-22.68-3.81-29.67-11.44
		c-6.99-7.62-10.48-18.32-10.48-32.1v-33.21c0-14.07,3.49-24.97,10.48-32.69c6.99-7.72,16.87-11.59,29.67-11.59
		c7.97,0,14.91,1.87,20.81,5.61c5.91,3.74,10.41,8.61,13.51,14.61c3.1,6,4.65,12.35,4.65,19.04V246.19z"/>
	<path class="st1" d="M974.41,163.17c-9.1-10.87-21.97-16.31-38.6-16.31c-11.81,0-22.19,2.24-31.14,6.72
		c-7.35,3.68-13.49,9.26-18.45,16.68v-21.18h-21.25v153.21h21.25v-97.41c0-12.2,3.47-21.62,10.41-28.26
		c6.94-6.64,16.7-9.96,29.3-9.96c12.99,0,23.05,3.74,30.18,11.22c7.13,7.48,10.7,18.01,10.7,31.59v92.84h21.26v-92.99
		C988.06,189.41,983.51,174.04,974.41,163.17z"/>
</g>
</svg>
